<svg xmlns="http://www.w3.org/2000/svg" width="70.381" height="17.793" viewBox="0 0 70.381 17.793"><path d="M9.121,18.68a3.054,3.054,0,0,1-1.294,2.632,6.082,6.082,0,0,1-3.608.933,12.546,12.546,0,0,1-1.665-.137,10.286,10.286,0,0,1-1.616-.332v-2.92a7.958,7.958,0,0,0,3.086.82q1.221,0,1.221-.635a.5.5,0,0,0-.283-.435,10.01,10.01,0,0,0-1.484-.571,4.192,4.192,0,0,1-1.934-1.113,2.647,2.647,0,0,1-.605-1.807,2.883,2.883,0,0,1,1.235-2.456,5.8,5.8,0,0,1,3.472-.9,11.035,11.035,0,0,1,2.773.381v2.8A8.387,8.387,0,0,0,7.07,14.5a5.443,5.443,0,0,0-1.23-.176,1.339,1.339,0,0,0-.654.137.421.421,0,0,0-.244.381.531.531,0,0,0,.264.459,4.664,4.664,0,0,0,1.055.42,4.894,4.894,0,0,1,2.2,1.152A2.525,2.525,0,0,1,9.121,18.68ZM16.2,22V20.477h-.039a3.272,3.272,0,0,1-3.047,1.768A2.917,2.917,0,0,1,10.9,21.4a3.12,3.12,0,0,1-.8-2.246q0-2.949,3.623-3.418l2.48-.322a.946.946,0,0,0-.439-.8A2,2,0,0,0,14.58,14.3a7.783,7.783,0,0,0-3.545.957V12.557a9.484,9.484,0,0,1,2.031-.576,11.822,11.822,0,0,1,2.09-.225,5.247,5.247,0,0,1,3.7,1.089A4.853,4.853,0,0,1,20,16.482V22ZM13.74,18.6a.922.922,0,0,0,.259.674.987.987,0,0,0,.737.264,1.311,1.311,0,0,0,1.06-.488A1.892,1.892,0,0,0,16.2,17.8V17.42l-1.406.2Q13.74,17.791,13.74,18.6Zm14.5,3.4V20.457H28.2a5.473,5.473,0,0,1-.933,1.045,3.589,3.589,0,0,1-.937.537,3.315,3.315,0,0,1-1.216.205,3.025,3.025,0,0,1-2.5-1.064,4.921,4.921,0,0,1-.859-3.145V12h4.16v5.723q0,1.475,1.1,1.475a1.08,1.08,0,0,0,.913-.4,1.825,1.825,0,0,0,.308-1.133V12H32.4V22Zm16.992-1.4a5.685,5.685,0,0,1-1.812,4.487A7.736,7.736,0,0,1,38.135,26.7a11.033,11.033,0,0,1-1.816-.146,5.006,5.006,0,0,1-1.26-.332V22.957a6.284,6.284,0,0,0,2.959.859,3.469,3.469,0,0,0,2.236-.674,2.177,2.177,0,0,0,.84-1.787V20.74h-.039a3.232,3.232,0,0,1-1.235,1.094,3.589,3.589,0,0,1-1.685.41A3.775,3.775,0,0,1,35.078,20.9,5.605,5.605,0,0,1,33.955,17.2a6.627,6.627,0,0,1,.586-2.861,4.465,4.465,0,0,1,1.631-1.909,4.188,4.188,0,0,1,2.3-.669,2.884,2.884,0,0,1,2.578,1.279h.039V12h4.141Zm-4.072-3.887a2.245,2.245,0,0,0-.4-1.4,1.256,1.256,0,0,0-1.05-.518,1.293,1.293,0,0,0-1.123.625,2.951,2.951,0,0,0-.42,1.67,2.89,2.89,0,0,0,.352,1.533,1.214,1.214,0,0,0,1.113.566,1.29,1.29,0,0,0,1.118-.581,2.676,2.676,0,0,0,.405-1.558ZM52.783,22V20.477h-.039A3.272,3.272,0,0,1,49.7,22.244a2.917,2.917,0,0,1-2.217-.84,3.12,3.12,0,0,1-.8-2.246q0-2.949,3.623-3.418l2.48-.322a.946.946,0,0,0-.439-.8,2,2,0,0,0-1.182-.312,7.783,7.783,0,0,0-3.545.957V12.557a9.484,9.484,0,0,1,2.031-.576,11.822,11.822,0,0,1,2.09-.225,5.247,5.247,0,0,1,3.7,1.089,4.853,4.853,0,0,1,1.147,3.638V22Zm-2.461-3.4a.922.922,0,0,0,.259.674.987.987,0,0,0,.737.264,1.311,1.311,0,0,0,1.06-.488,1.892,1.892,0,0,0,.405-1.25V17.42l-1.406.2Q50.322,17.791,50.322,18.6ZM65.5,21.863a4.053,4.053,0,0,1-.928.259,8.482,8.482,0,0,1-1.553.122,3.73,3.73,0,0,1-2.72-.957,3.632,3.632,0,0,1-.981-2.725V14.881H57.744V12h1.572V10.037l4.1-1.133V12H65.5v2.881h-2.08v3q0,1.318,1.045,1.318a2.835,2.835,0,0,0,1.035-.215Zm5.82-1.6a1.816,1.816,0,0,1-.625,1.436,2.537,2.537,0,0,1-1.729.547,2.377,2.377,0,0,1-1.646-.571,1.817,1.817,0,0,1-.64-1.411,1.734,1.734,0,0,1,.63-1.392,2.932,2.932,0,0,1,3.369,0A1.723,1.723,0,0,1,71.318,20.262Z" transform="translate(-0.938 -8.904)"/></svg>