<svg xmlns="http://www.w3.org/2000/svg" width="19.328" height="14.496" viewBox="0 0 19.328 14.496">
  <path id="Icon_awesome-hand-point-right" data-name="Icon awesome-hand-point-right" d="M19.328,9.621a1.7,1.7,0,0,1-1.691,1.654H13.867a1.857,1.857,0,0,1-.238,2.678,1.729,1.729,0,0,1-.621,2.352c.339,1.855-.828,2.69-2.741,2.69-.1,0-.5-.008-.6-.007-2.339.006-2.9-1.173-4.671-1.446a.9.9,0,0,1-.765-.895V10.172h0A1.812,1.812,0,0,1,5.3,8.517C6.393,8.027,8.9,6.666,9.362,5.6a1.609,1.609,0,0,1,1.51-1.1,1.813,1.813,0,0,1,1.665,2.526A5.131,5.131,0,0,1,12,7.966h5.633A1.73,1.73,0,0,1,19.328,9.621Zm-15.7.013v7.248a.906.906,0,0,1-.906.906H.906A.906.906,0,0,1,0,16.882V9.634a.906.906,0,0,1,.906-.906H2.718A.906.906,0,0,1,3.624,9.634ZM2.567,15.976a.755.755,0,1,0-.755.755A.755.755,0,0,0,2.567,15.976Z" transform="translate(0 -4.5)"/>
</svg>
